<?xml version="1.0" encoding="utf-8"?>
<!-- Generator: Adobe Illustrator 22.0.0, SVG Export Plug-In . SVG Version: 6.00 Build 0)  -->
<svg version="1.2" baseProfile="tiny" id="Layer_1" xmlns="http://www.w3.org/2000/svg" xmlns:xlink="http://www.w3.org/1999/xlink"
	 x="0px" y="0px" viewBox="0 0 80 80" xml:space="preserve">
<title>f6s-logo</title>
<g id="Page-1">
	<g id="f6s-logo">
		<rect id="Rectangle" y="0" fill="#FFFFFF" width="80" height="80"/>
		<path id="Path" fill="#F16C4F" d="M40,0C17.9,0,0,17.9,0,40s17.9,40,40,40s40-17.9,40-40S62.1,0,40,0z"/>
		<polygon id="Path_1_" fill="#FFFFFF" points="25.7,36.3 26.1,36.3 26.1,36.7 26.1,41.7 26.1,42.1 25.7,42.1 21.1,42.1 21.1,61.6 
			21.1,62 20.7,62 15.7,62 15.3,62 15.3,61.6 15.3,18.4 15.3,18 15.7,18 29,18 29.4,18 29.4,18.4 29.4,23.4 29.4,23.8 29,23.8 
			21.1,23.8 21.1,36.3 		"/>
		<path id="Combined-Shape" fill="#FFFFFF" d="M44.1,18c1.7,0,3.1,1.4,3.1,3.1v7.7h-5.8v-5h-4.2v12.5h6.9c1.7,0,3.1,1.4,3.1,3.1
			v19.5c0,1.7-1.5,3.1-3.1,3.1h-9.5c-1.7,0-3.1-1.4-3.1-3.1V21.2c0-1.7,1.4-3.2,3-3.2H44.1z M41.4,42.1h-4.2v14.2h4.2V42.1z"/>
		<path id="Path_2_" fill="#FFFFFF" d="M64.7,28.4v0.4h-0.4h-5h-0.4v-0.4v-4.6h-4.2v12.5l6.9,0c1.6,0,3.1,2,3.1,3.6v19
			c0,1.7-1.4,3.2-3.1,3.2h-9.3c-1.6,0-3.1-1.4-3.1-3.1V48.3v-0.4l0.4,0l4.6,0l0.4,0v0.4v7.9h4.2V42.1l-6.6,0c-1.6,0-3-1.5-3-3.1
			V21.1c0-1.7,1.4-3.1,3.1-3.1h9.3c1.6,0,3.1,1.5,3.1,3.1V28.4L64.7,28.4z"/>
	</g>
</g>
</svg>
